<!--?xml version="1.0" encoding="iso-8859-1"?-->
<!-- Generator: Adobe Illustrator 19.0.0, SVG Export Plug-In . SVG Version: 6.00 Build 0)  -->
<svg version="1.1" id="Layer_1" xmlns="http://www.w3.org/2000/svg" xmlns:xlink="http://www.w3.org/1999/xlink" x="0px" y="0px" viewBox="0 0 297 297" style="enable-background:new 0 0 297 297;" xml:space="preserve">
<g>
	<g>
		<g>
			<circle style="fill: rgb(78, 56, 34);" cx="148.5" cy="148.5" r="148.5"></circle>
		</g>
	</g>
	<path style="fill: rgb(100, 71, 44);" d="M211.764,69.547l-101.335,176.17l50.698,50.744c74.087-6.24,132.684-66.864,135.737-141.814
		L211.764,69.547z"></path>
	<g>
		<path style="fill: rgb(208, 213, 217);" d="M116.039,247.5h64.923c4.989,0,9.167-3.781,9.663-8.745L206.25,82.5H90.75l15.626,156.255
			C106.872,243.719,111.049,247.5,116.039,247.5z"></path>
	</g>
	<g>
		<path style="fill: rgb(161, 94, 73);" d="M96.5,66.667l79.924-15.985c4.213-0.843,8.567,0.476,11.605,3.514L200.5,66.667H96.5z"></path>
	</g>
	<g>
		<path style="fill: rgb(192, 194, 196);" d="M148.667,82.5v165h32.294c4.989,0,9.167-3.781,9.663-8.745L206.25,82.5H148.667z"></path>
	</g>
	<g>
		<path style="fill: rgb(184, 108, 84);" d="M188.029,54.196c-3.038-3.038-7.393-4.356-11.605-3.514l-27.757,5.551v10.433H200.5L188.029,54.196
			z"></path>
	</g>
	<g>
		<path style="fill: rgb(184, 108, 84);" d="M203.834,99H93.167C87.276,99,82.5,94.224,82.5,88.333V76.666C82.5,70.776,87.276,66,93.167,66
			h110.667c5.891,0,10.667,4.776,10.667,10.666v11.667C214.5,94.224,209.724,99,203.834,99z"></path>
	</g>
	<g>
		<path style="fill: rgb(161, 94, 73);" d="M203.834,66h-55.167v33h55.167c5.891,0,10.667-4.776,10.667-10.667V76.667
			C214.5,70.775,209.724,66,203.834,66z"></path>
	</g>
	<g>
		<polygon style="fill: rgb(161, 94, 73);" points="198.908,155.917 98.092,155.917 99.908,174.083 197.092,174.083 		"></polygon>
	</g>
	<g>
		<polygon style="fill: rgb(161, 94, 73);" points="198.908,155.917 148.667,155.917 148.667,174.083 197.092,174.083 		"></polygon>
	</g>
	<g>
		<circle style="fill: rgb(100, 71, 44);" cx="148.5" cy="165" r="22"></circle>
	</g>
	<g>
		<path style="fill: rgb(78, 56, 34);" d="M170.5,165c0-12.094-9.76-21.906-21.833-21.996v43.992C160.74,186.906,170.5,177.094,170.5,165z"></path>
	</g>
</g>
<g>
</g>
<g>
</g>
<g>
</g>
<g>
</g>
<g>
</g>
<g>
</g>
<g>
</g>
<g>
</g>
<g>
</g>
<g>
</g>
<g>
</g>
<g>
</g>
<g>
</g>
<g>
</g>
<g>
</g>
</svg>
